<svg xmlns="http://www.w3.org/2000/svg" xmlns:svg="http://www.w3.org/2000/svg" id="svg4117" width="20.014" height="20.014" version="1.1" viewBox="0 0 20.014 20.014"><metadata id="metadata4123"/><path style="opacity:1;fill:#000;fill-opacity:1;stroke:#000;stroke-width:0;stroke-linecap:butt;stroke-linejoin:miter;stroke-miterlimit:4;stroke-dasharray:none;stroke-dashoffset:0;stroke-opacity:1" id="rect1055" d="M 2.0996094 0 C 0.9365584 2.9605947e-16 0 0.9365584 0 2.0996094 L 0 17.914062 C 2.9605947e-16 19.077113 0.9365584 20.013672 2.0996094 20.013672 L 17.914062 20.013672 C 19.077113 20.013672 20.013672 19.077113 20.013672 17.914062 L 20.013672 2.0996094 C 20.013672 0.9365584 19.077113 0 17.914062 0 L 2.0996094 0 z M 10.957031 4.4707031 C 12.003264 4.4707031 13.055271 4.7225907 14.111328 5.2285156 L 13.375 7.0859375 C 12.972225 6.8943737 12.56589 6.7264292 12.158203 6.5839844 C 11.750516 6.4415395 11.349983 6.3710938 10.957031 6.3710938 C 10.09745 6.3710938 9.4324792 6.6953803 8.9609375 7.34375 C 8.4893959 7.9872082 8.2539062 8.8867208 8.2539062 10.041016 C 8.2539062 12.442931 9.1543668 13.642578 10.957031 13.642578 C 11.713463 13.642578 12.629374 13.454388 13.705078 13.076172 L 13.705078 14.992188 C 12.820937 15.36058 11.834581 15.542969 10.744141 15.542969 C 9.177247 15.542969 7.9785474 15.069089 7.1484375 14.121094 C 6.3183281 13.168187 5.9023437 11.803496 5.9023438 10.025391 C 5.9023438 8.9054799 6.1059852 7.9258715 6.5136719 7.0859375 C 6.9213589 6.241092 7.5062348 5.5954197 8.2675781 5.1484375 C 9.0338333 4.6965434 9.9304457 4.4707031 10.957031 4.4707031 z"/></svg>