<svg xmlns="http://www.w3.org/2000/svg" xmlns:svg="http://www.w3.org/2000/svg" id="svg4117" width="20.23" height="20.484" version="1.1" viewBox="0 0 20.23 20.484"><metadata id="metadata4123"/><path style="color:#000;font-style:normal;font-variant:normal;font-weight:400;font-stretch:normal;font-size:medium;line-height:normal;font-family:sans-serif;font-variant-ligatures:normal;font-variant-position:normal;font-variant-caps:normal;font-variant-numeric:normal;font-variant-alternates:normal;font-feature-settings:normal;text-indent:0;text-align:start;text-decoration:none;text-decoration-line:none;text-decoration-style:solid;text-decoration-color:#000;letter-spacing:normal;word-spacing:normal;text-transform:none;writing-mode:lr-tb;direction:ltr;text-orientation:mixed;dominant-baseline:auto;baseline-shift:baseline;text-anchor:start;white-space:normal;shape-padding:0;clip-rule:nonzero;display:inline;overflow:visible;visibility:visible;opacity:1;isolation:auto;mix-blend-mode:normal;color-interpolation:sRGB;color-interpolation-filters:linearRGB;solid-color:#000;solid-opacity:1;vector-effect:none;fill:#000;fill-opacity:1;fill-rule:nonzero;stroke:none;stroke-width:2.20000005;stroke-linecap:butt;stroke-linejoin:miter;stroke-miterlimit:4;stroke-dasharray:none;stroke-dashoffset:0;stroke-opacity:1;color-rendering:auto;image-rendering:auto;shape-rendering:auto;text-rendering:auto;enable-background:accumulate" id="path991" d="M 10.115234,0 C 4.5336313,0 0,4.6069272 0,10.242188 c 0,5.63526 4.5336313,10.242187 10.115234,10.242187 5.581603,0 10.115235,-4.606927 10.115235,-10.242187 C 20.230469,4.6069272 15.696837,0 10.115234,0 Z m 0,2.1992188 c 4.375838,-1e-7 7.914063,3.5801133 7.914063,8.0429692 0,4.462855 -3.538225,8.042968 -7.914063,8.042968 -4.3758371,0 -7.9160153,-3.580113 -7.9160152,-8.042968 0,-4.4628559 3.5401781,-8.0429692 7.9160152,-8.0429692 z"/><g style="font-style:normal;font-variant:normal;font-weight:400;font-stretch:normal;font-size:11.875px;line-height:25px;font-family:sans-serif;-inkscape-font-specification:sans-serif;letter-spacing:0;word-spacing:0;fill:#000;fill-opacity:1;stroke:none;stroke-width:.6009602px;stroke-linecap:butt;stroke-linejoin:miter;stroke-opacity:1" id="flowRoot1025" aria-label="i" transform="matrix(2.2462347,0,0,1.2326889,-7.8993898,-12.058201)"><path style="stroke-width:.6009602px" id="path1033" d="m 7.4862671,16.278077 h 1.0668945 v 6.49414 H 7.4862671 Z m 0,-2.868693 h 1.0668945 v 1.69163 H 7.4862671 Z"/></g></svg>