<svg xmlns="http://www.w3.org/2000/svg" xmlns:svg="http://www.w3.org/2000/svg" id="svg4117" width="20.014" height="20.014" version="1.1" viewBox="0 0 20.014 20.014"><metadata id="metadata4123"/><path style="opacity:1;fill:#000;fill-opacity:1;stroke:#000;stroke-width:0;stroke-linecap:butt;stroke-linejoin:miter;stroke-miterlimit:4;stroke-dasharray:none;stroke-dashoffset:0;stroke-opacity:1" id="rect1055" d="M 2.0996094 0 C 0.9365584 2.9605947e-16 0 0.9365584 0 2.0996094 L 0 17.914062 C 2.9605947e-16 19.077113 0.9365584 20.013672 2.0996094 20.013672 L 17.914062 20.013672 C 19.077113 20.013672 20.013672 19.077113 20.013672 17.914062 L 20.013672 2.0996094 C 20.013672 0.9365584 19.077113 0 17.914062 0 L 2.0996094 0 z M 6.2871094 4.6210938 L 9.7265625 4.6210938 C 11.033126 4.6210938 12.025284 4.9038824 12.703125 5.46875 C 13.385878 6.0287057 13.728516 6.8654691 13.728516 7.9804688 C 13.728516 9.1396753 13.363679 10.026639 12.636719 10.640625 C 11.914671 11.254611 10.886816 11.5625 9.5507812 11.5625 L 8.5703125 11.5625 L 8.5703125 15.392578 L 6.2871094 15.392578 L 6.2871094 4.6210938 z M 8.5703125 6.4921875 L 8.5703125 9.6894531 L 9.3222656 9.6894531 C 10.024666 9.6894531 10.549693 9.5524098 10.898438 9.2773438 C 11.247182 8.9973654 11.421875 8.592984 11.421875 8.0625 C 11.421875 7.5271037 11.275182 7.1304185 10.980469 6.875 C 10.690667 6.6195816 10.233185 6.4921875 9.609375 6.4921875 L 8.5703125 6.4921875 z"/></svg>