<svg xmlns="http://www.w3.org/2000/svg" xmlns:svg="http://www.w3.org/2000/svg" id="svg4117" width="20.014" height="20.014" version="1.1" viewBox="0 0 20.014 20.014"><metadata id="metadata4123"/><path style="opacity:1;fill:#000;fill-opacity:1;stroke:#000;stroke-width:0;stroke-linecap:butt;stroke-linejoin:miter;stroke-miterlimit:4;stroke-dasharray:none;stroke-dashoffset:0;stroke-opacity:1" id="rect1055" d="M 2.0996094 0 C 0.9365584 2.9605947e-16 0 0.9365584 0 2.0996094 L 0 17.914062 C 2.9605947e-16 19.077113 0.9365584 20.013672 2.0996094 20.013672 L 17.914062 20.013672 C 19.077113 20.013672 20.013672 19.077113 20.013672 17.914062 L 20.013672 2.0996094 C 20.013672 0.9365584 19.077113 0 17.914062 0 L 2.0996094 0 z M 5.7050781 4.6210938 L 8.84375 4.6210938 C 10.307494 4.6210938 11.389396 4.8884318 12.091797 5.4238281 C 12.794197 5.9543125 13.146484 6.7621281 13.146484 7.8476562 C 13.146484 8.4812905 12.971791 9.0468681 12.623047 9.5429688 C 12.274303 10.034158 11.781124 10.41924 11.142578 10.699219 C 12.763503 13.120781 13.819358 14.685266 14.310547 15.392578 L 11.775391 15.392578 L 9.203125 11.259766 L 7.9882812 11.259766 L 7.9882812 15.392578 L 5.7050781 15.392578 L 5.7050781 4.6210938 z M 7.9882812 6.4921875 L 7.9882812 9.4023438 L 8.7246094 9.4023438 C 9.4466576 9.4023438 9.9803863 9.2816984 10.324219 9.0410156 C 10.668051 8.8003328 10.839844 8.4219989 10.839844 7.90625 C 10.839844 7.3954131 10.66225 7.0325295 10.308594 6.8164062 C 9.9598494 6.6002829 9.4184245 6.4921875 8.6816406 6.4921875 L 7.9882812 6.4921875 z"/></svg>