<svg xmlns="http://www.w3.org/2000/svg" xmlns:svg="http://www.w3.org/2000/svg" id="svg4117" width="20.014" height="20.014" version="1.1" viewBox="0 0 20.014 20.014"><metadata id="metadata4123"/><path style="opacity:1;fill:#000;fill-opacity:1;stroke:#000;stroke-width:0;stroke-linecap:butt;stroke-linejoin:miter;stroke-miterlimit:4;stroke-dasharray:none;stroke-dashoffset:0;stroke-opacity:1" id="rect1055" d="M 2.0996094 0 C 0.9365584 2.9605947e-16 0 0.9365584 0 2.0996094 L 0 17.914062 C 2.9605947e-16 19.077113 0.9365584 20.013672 2.0996094 20.013672 L 17.914062 20.013672 C 19.077113 20.013672 20.013672 19.077113 20.013672 17.914062 L 20.013672 2.0996094 C 20.013672 0.9365584 19.077113 0 17.914062 0 L 2.0996094 0 z M 5.5859375 4.546875 L 7.8632812 4.546875 L 7.8632812 11.142578 C 7.8632812 11.972688 8.0292726 12.58071 8.3632812 12.96875 C 8.6972899 13.35679 9.2503173 13.550781 10.021484 13.550781 C 10.768092 13.550781 11.308569 13.35679 11.642578 12.96875 C 11.981499 12.575798 12.150391 11.961975 12.150391 11.126953 L 12.150391 4.546875 L 14.427734 4.546875 L 14.427734 11.517578 C 14.427734 12.313304 14.249193 13.010125 13.890625 13.609375 C 13.536969 14.208626 13.022539 14.669008 12.349609 14.988281 C 11.67668 15.307554 10.881414 15.466797 9.9628906 15.466797 C 8.577737 15.466797 7.5025833 15.113563 6.7363281 14.40625 C 5.9700729 13.694025 5.5859375 12.721166 5.5859375 11.488281 L 5.5859375 4.546875 z"/></svg>