<svg xmlns="http://www.w3.org/2000/svg" xmlns:svg="http://www.w3.org/2000/svg" id="svg4117" width="20.014" height="20.014" version="1.1" viewBox="0 0 20.014 20.014"><metadata id="metadata4123"/><path style="opacity:1;fill:#000;fill-opacity:1;stroke:#000;stroke-width:0;stroke-linecap:butt;stroke-linejoin:miter;stroke-miterlimit:4;stroke-dasharray:none;stroke-dashoffset:0;stroke-opacity:1" id="rect1055" d="M 2.0996094 0 C 0.9365584 2.9605947e-16 0 0.9365584 0 2.0996094 L 0 17.914062 C 2.9605947e-16 19.077113 0.9365584 20.013672 2.0996094 20.013672 L 17.914062 20.013672 C 19.077113 20.013672 20.013672 19.077113 20.013672 17.914062 L 20.013672 2.0996094 C 20.013672 0.9365584 19.077113 0 17.914062 0 L 2.0996094 0 z M 5.1035156 4.6210938 L 7.4101562 4.6210938 L 9.4355469 11.03125 C 9.5485204 11.409466 9.6653178 11.851497 9.7832031 12.357422 C 9.9060005 12.858435 9.9802943 13.207821 10.009766 13.404297 C 10.063796 12.952402 10.248139 12.160985 10.5625 11.03125 L 12.603516 4.6210938 L 14.910156 4.6210938 L 11.248047 15.392578 L 8.7578125 15.392578 L 5.1035156 4.6210938 z"/></svg>